HIERARCHY
ROOT Hips
{
	OFFSET 0.00000 0.00000 0.00000
	CHANNELS 6 Xposition Yposition Zposition Zrotation Yrotation Xrotation 
	JOINT LHipJoint
	{
		OFFSET 0 0 0
		CHANNELS 3 Zrotation Yrotation Xrotation
		JOINT LeftUpLeg
		{
			OFFSET 1.74857 -1.85566 0.69197
			CHANNELS 3 Zrotation Yrotation Xrotation
			JOINT LeftLeg
			{
				OFFSET 2.40003 -6.59403 0.00000
				CHANNELS 3 Zrotation Yrotation Xrotation
				JOINT LeftFoot
				{
					OFFSET 2.82169 -7.75254 0.00000
					CHANNELS 3 Zrotation Yrotation Xrotation
					JOINT LeftToeBase
					{
						OFFSET 0.16466 -0.45240 2.26890
						CHANNELS 3 Zrotation Yrotation Xrotation
						End Site
						{
							OFFSET 0.00000 -0.00000 1.16486
						}
					}
				}
			}
		}
	}
	JOINT RHipJoint
	{
		OFFSET 0 0 0
		CHANNELS 3 Zrotation Yrotation Xrotation
		JOINT RightUpLeg
		{
			OFFSET -1.64169 -1.85566 0.69197
			CHANNELS 3 Zrotation Yrotation Xrotation
			JOINT RightLeg
			{
				OFFSET -2.41814 -6.64379 0.00000
				CHANNELS 3 Zrotation Yrotation Xrotation
				JOINT RightFoot
				{
					OFFSET -2.80588 -7.70911 0.00000
					CHANNELS 3 Zrotation Yrotation Xrotation
					JOINT RightToeBase
					{
						OFFSET -0.19098 -0.52472 2.25401
						CHANNELS 3 Zrotation Yrotation Xrotation
						End Site
						{
							OFFSET -0.00000 -0.00000 1.16333
						}
					}
				}
			}
		}
	}
	JOINT LowerBack
	{
		OFFSET 0 0 0
		CHANNELS 3 Zrotation Yrotation Xrotation
		JOINT Spine
		{
			OFFSET -0.02828 2.14690 -0.11061
			CHANNELS 3 Zrotation Yrotation Xrotation
			JOINT Spine1
			{
				OFFSET -0.00167 2.15299 0.00759
				CHANNELS 3 Zrotation Yrotation Xrotation
				JOINT Neck
				{
					OFFSET 0 0 0
					CHANNELS 3 Zrotation Yrotation Xrotation
					JOINT Neck1
					{
						OFFSET -0.09296 1.90118 0.07197
						CHANNELS 3 Zrotation Yrotation Xrotation
						JOINT Head
						{
							OFFSET 0.08490 1.89526 -0.24604
							CHANNELS 3 Zrotation Yrotation Xrotation
							End Site
							{
								OFFSET 0.03186 1.92109 -0.09483
							}
						}
					}
				}
				JOINT LeftShoulder
				{
					OFFSET 0 0 0
					CHANNELS 3 Zrotation Yrotation Xrotation
					JOINT LeftArm
					{
						OFFSET 3.21569 1.44644 -0.03720
						CHANNELS 3 Zrotation Yrotation Xrotation
						JOINT LeftForeArm
						{
							OFFSET 5.47651 -0.00000 -0.00000
							CHANNELS 3 Zrotation Yrotation Xrotation
							JOINT LeftHand
							{
								OFFSET 3.09058 -0.00000 -0.00000
								CHANNELS 3 Zrotation Yrotation Xrotation
								JOINT LeftFingerBase
								{
									OFFSET 0 0 0
									CHANNELS 3 Zrotation Yrotation Xrotation
									JOINT LeftHandIndex1
									{
										OFFSET 0.77161 -0.00000 -0.00000
										CHANNELS 3 Zrotation Yrotation Xrotation
										End Site
										{
											OFFSET 0.62209 -0.00000 -0.00000
										}
									}
								}
								JOINT LThumb
								{
									OFFSET 0 0 0
									CHANNELS 3 Zrotation Yrotation Xrotation
									End Site
									{
										OFFSET 0.63159 -0.00000 0.63159
									}
								}
							}
						}
					}
				}
				JOINT RightShoulder
				{
					OFFSET 0 0 0
					CHANNELS 3 Zrotation Yrotation Xrotation
					JOINT RightArm
					{
						OFFSET -3.38693 1.28904 -0.07093
						CHANNELS 3 Zrotation Yrotation Xrotation
						JOINT RightForeArm
						{
							OFFSET -5.14182 -0.00000 -0.00000
							CHANNELS 3 Zrotation Yrotation Xrotation
							JOINT RightHand
							{
								OFFSET -3.35565 -0.00000 -0.00000
								CHANNELS 3 Zrotation Yrotation Xrotation
								JOINT RightFingerBase
								{
									OFFSET 0 0 0
									CHANNELS 3 Zrotation Yrotation Xrotation
									JOINT RightHandIndex1
									{
										OFFSET -0.80104 -0.00000 -0.00000
										CHANNELS 3 Zrotation Yrotation Xrotation
										End Site
										{
											OFFSET -0.64582 -0.00000 -0.00000
										}
									}
								}
								JOINT RThumb
								{
									OFFSET 0 0 0
									CHANNELS 3 Zrotation Yrotation Xrotation
									End Site
									{
										OFFSET -0.65568 -0.00000 0.65568
									}
								}
							}
						}
					}
				}
			}
		}
	}
}
MOTION
Frames: 8
Frame Time: .0083333
-0.2505 17.7685 -2.7452 0 0 0 0 0 0 -21 0 0 0 0 0 0 0 0 0 0 0 0 0 0 21 0 0 0 0 0 0 0 0 0 0 0 0 0 0 0 0 0 0 0 0 0 0 -16 0 0 21 0 0 11 0 0 0 -8 0 0 0 0 0 0 0 0 0 0 0 0 0 0 0 0 0 0 0 0 8 0 0 0 0 0 0 0 0 0 0 0 0 0 0 0 0 0
-0.2505 17.7685 -2.7452 1.7809 -1.1191 3.8583 0.0000 0.0000 0.0000 -20.0079 -5.0579 -18.1152 3.0072 10.7067 31.2970 1.0114 3.3135 -20.4650 0.5772 -4.8649 -13.5237 0.0000 0.0000 0.0000 15.4703 8.2584 -20.3994 -3.2809 -11.1365 32.7415 -0.6411 -6.2405 -18.6702 -0.3695 3.9046 -10.8083 -0.7876 2.3144 10.1174 0.0910 2.9897 4.3381 0.2085 1.4809 -1.2034 -6.4256 -4.7187 -0.4779 4.3543 -6.3509 4.5738 2.3806 -3.1974 1.9162 0.0000 0.0000 0.0000 -54.5836 -61.7422 31.4487 32.3004 -42.7854 -12.9444 -0.0000 0.0000 -62.3448 -5.3259 30.1287 -2.6791 -7.1250 0.0000 -0.0000 -38.7656 55.6298 -11.3356 0.0000 0.0000 0.0000 49.1742 60.6740 9.4434 -21.0047 31.8338 -6.0524 0.0000 -0.0000 -60.9919 -5.3731 11.7840 -1.1004 7.1250 -0.0000 -0.0000 15.1566 -18.3643 9.9640
-0.2516 17.7707 -2.7473 1.7487 -1.1254 3.8211 0.0000 0.0000 0.0000 -19.9757 -5.0175 -18.0812 3.0019 10.6981 31.2682 0.9801 3.4725 -20.2599 0.6380 -5.1102 -14.2232 0.0000 0.0000 0.0000 15.5217 8.2355 -20.3634 -3.2764 -11.1296 32.7182 -0.6386 -6.2209 -18.6287 -0.3946 4.0336 -11.1712 -0.7448 2.3069 10.1991 0.1063 2.9831 4.3430 0.1978 1.4779 -1.2415 -6.4258 -4.6992 -0.4835 4.2989 -6.3224 4.5917 2.3628 -3.1841 1.9190 -0.0000 -0.0000 0.0000 -54.5645 -61.6582 31.4362 32.3346 -42.8123 -12.9676 -0.0000 0.0000 -62.3228 -5.4532 30.1853 -2.7481 -7.1250 0.0000 -0.0000 -38.9309 55.6492 -11.4151 -0.0000 -0.0000 0.0000 49.2135 60.6528 9.5209 -21.0157 31.8467 -6.0582 0.0000 -0.0000 -60.9142 -5.2767 11.8148 -1.0833 7.1250 -0.0000 -0.0000 15.2201 -18.3378 10.0182
-0.2544 17.7699 -2.7498 1.7814 -1.1306 3.8222 0.0000 0.0000 0.0000 -19.9987 -5.0271 -18.1164 3.0109 10.7126 31.3168 0.9858 3.4498 -20.3011 0.6392 -5.1150 -14.2367 0.0000 0.0000 0.0000 15.4912 8.2270 -20.3992 -3.2819 -11.1379 32.7465 -0.6417 -6.1813 -18.6310 -0.3889 4.0046 -11.0895 -0.7866 2.3017 10.2265 0.1017 2.9719 4.3512 0.2167 1.4719 -1.2496 -6.3971 -4.6886 -0.5050 4.2333 -6.3043 4.5843 2.3358 -3.1754 1.9152 -0.0000 0.0000 0.0000 -54.4022 -61.6164 31.3627 32.3530 -42.8268 -12.9801 -0.0000 0.0000 -62.3907 -5.4287 30.1905 -2.7361 -7.1250 0.0000 -0.0000 -38.9131 55.6583 -11.4177 -0.0000 0.0000 0.0000 49.2089 60.6493 9.5699 -21.0396 31.8745 -6.0708 0.0000 -0.0000 -60.8830 -5.1808 11.8322 -1.0651 7.1250 -0.0000 -0.0000 15.2843 -18.3244 10.0684
-0.2580 17.7694 -2.7539 1.7201 -1.1086 3.8905 0.0000 0.0000 0.0000 -19.9000 -5.0733 -18.2236 3.0181 10.7243 31.3555 0.9909 3.3914 -20.3169 0.6216 -5.0454 -14.0382 0.0000 0.0000 0.0000 15.5589 8.2729 -20.5072 -3.2916 -11.1528 32.7970 -0.6374 -6.2168 -18.6124 -0.3846 3.9826 -11.0278 -0.7378 2.2962 10.2069 0.1124 2.9696 4.3212 0.2008 1.4713 -1.2683 -6.3498 -4.7039 -0.4724 4.2016 -6.3264 4.6018 2.3167 -3.1866 1.9130 0.0000 0.0000 0.0000 -54.3502 -61.6080 31.3925 32.3521 -42.8261 -12.9796 -0.0000 0.0000 -62.4126 -5.4097 30.1868 -2.7262 -7.1250 0.0000 -0.0000 -38.8926 55.6591 -11.4111 0.0000 0.0000 0.0000 49.1445 60.6233 9.6058 -21.0439 31.8796 -6.0731 0.0000 -0.0000 -60.8699 -5.2193 11.8129 -1.0713 7.1250 -0.0000 -0.0000 15.2595 -18.3417 10.0447
-0.2602 17.7707 -2.7567 1.6233 -1.1062 3.9360 0.0000 0.0000 0.0000 -19.7817 -5.0911 -18.3137 3.0263 10.7375 31.3995 0.9805 3.4516 -20.2524 0.6298 -5.0781 -14.1314 0.0000 0.0000 0.0000 15.6753 8.2863 -20.5558 -3.3051 -11.1733 32.8665 -0.6452 -6.1194 -18.6220 -0.3443 3.7706 -10.4321 -0.6150 2.2983 10.1928 0.1256 2.9843 4.3340 0.1450 1.4796 -1.2420 -6.3434 -4.7241 -0.5580 4.1908 -6.3489 4.6449 2.3091 -3.1972 1.9430 0.0000 -0.0000 0.0000 -54.2646 -61.6644 31.3794 32.3518 -42.8258 -12.9793 -0.0000 0.0000 -62.3977 -5.3261 30.1246 -2.6788 -7.1250 0.0000 -0.0000 -38.7621 55.6264 -11.3310 0.0000 -0.0000 0.0000 48.9538 60.6429 9.5406 -21.0639 31.9029 -6.0837 0.0000 -0.0000 -60.9437 -5.3667 11.7811 -1.0988 7.1250 -0.0000 -0.0000 15.1612 -18.3673 9.9662
-0.2621 17.7723 -2.7576 1.6231 -1.1123 3.9608 0.0000 0.0000 0.0000 -19.7851 -5.0869 -18.3783 3.0332 10.7485 31.4364 0.9669 3.4639 -20.1323 0.6193 -5.0361 -14.0117 0.0000 0.0000 0.0000 15.6875 8.2684 -20.5606 -3.3189 -11.1942 32.9376 -0.6587 -5.9487 -18.6374 -0.2860 3.4390 -9.5036 -0.5787 2.2718 10.1885 0.1253 2.9526 4.3869 0.1296 1.4641 -1.1827 -6.4251 -4.7184 -0.7715 4.1945 -6.3277 4.6763 2.3209 -3.1861 1.9940 0.0000 0.0000 0.0000 -54.0425 -61.7202 31.1112 32.3646 -42.8359 -12.9880 -0.0000 0.0000 -62.3161 -5.1227 30.0280 -2.5686 -7.1250 0.0000 -0.0000 -38.4924 55.5901 -11.1975 0.0000 0.0000 0.0000 48.7754 60.7711 9.4883 -21.0873 31.9301 -6.0960 0.0000 -0.0000 -60.9781 -5.3610 11.6938 -1.0896 7.1250 -0.0000 -0.0000 15.1716 -18.4521 9.9439
-0.2638 17.7734 -2.7598 1.6267 -1.1232 3.9575 0.0000 0.0000 0.0000 -19.7829 -5.0818 -18.4040 3.0379 10.7562 31.4619 0.9622 3.4383 -20.0742 0.5725 -4.8457 -13.4689 0.0000 0.0000 0.0000 15.6913 8.2773 -20.5624 -3.3288 -11.2092 32.9887 -0.6623 -5.8770 -18.6235 -0.2658 3.3167 -9.1618 -0.6206 2.2174 10.2065 0.1793 2.8777 4.4261 0.2172 1.4257 -1.1561 -6.5650 -4.6648 -0.8633 4.1239 -6.2436 4.6691 2.3233 -3.1470 2.0060 0.0000 -0.0000 0.0000 -53.8280 -61.6819 30.7065 32.3297 -42.8084 -12.9643 -0.0000 0.0000 -62.1532 -5.0956 29.9583 -2.5496 -7.1250 0.0000 -0.0000 -38.4075 55.5400 -11.1176 0.0000 -0.0000 0.0000 48.6641 60.9056 9.6849 -21.1179 31.9657 -6.1122 0.0000 -0.0000 -60.9964 -5.3869 11.7217 -1.0975 7.1250 -0.0000 -0.0000 15.1518 -18.4241 9.9397
